<?xml version="1.0" encoding="UTF-8"?>
<svg id="Capa_1" data-name="Capa 1" xmlns="http://www.w3.org/2000/svg" viewBox="0 0 183.3 183.3">
  <defs>
    <style>
      .cls-1 {
        fill: #c8eab9;
      }
    </style>
  </defs>
  <path class="cls-1" d="M132.37,62.83v-17.3c-9.56,0-18.78-.57-27.9.15-9.95.79-17.71,9.93-18.08,20.17-.24,6.5-.04,13.01-.04,20.24h-19.03v19.08h18.58v56.78c-.84.2-1.78.61-2.71.62-12.91.03-25.82.24-38.72-.08-12.71-.32-21.99-8.95-23.49-21.56-.53-4.45-.41-8.99-.42-13.49-.03-26.23-.07-52.46.01-78.68.06-18.36,9.15-27.79,27.35-27.92,29.67-.21,59.35-.24,89.03-.1,16,.08,25.76,10.27,25.79,26.44.05,29.71.05,59.42.01,89.13-.02,16.03-10.06,26.18-25.94,26.29-9.2.06-18.39.01-28.12.01v-57.19c5.81,0,11.5.2,17.16-.13,1.56-.09,4.09-1.56,4.36-2.78,1.1-5.13,1.51-10.41,2.25-16.24h-24.72c.6-7.06-2.11-15.1,4.51-18.96,5.4-3.15,12.75-2.99,20.11-4.47Z"/>
</svg>