<?xml version="1.0" encoding="UTF-8"?>
<svg id="Capa_1" data-name="Capa 1" xmlns="http://www.w3.org/2000/svg" viewBox="0 0 183.3 183.3">
  <defs>
    <style>
      .cls-1 {
        fill: #c8eab9;
      }
    </style>
  </defs>
  <path class="cls-1" d="M162.62,91.66c0,11.47.13,22.94-.02,34.41-.3,21.96-15.42,36.75-37.45,36.76-22.33.01-44.66.03-66.99-.02-22.35-.05-37.47-15.11-37.51-37.34-.04-22.74-.05-45.48,0-68.21.06-21.42,15.33-36.65,36.87-36.73,22.74-.09,45.48-.1,68.21-.02,21.33.07,36.45,14.88,36.83,36.13.21,11.67.04,23.35.04,35.03ZM91.67,39.84c-10.44,0-20.88,0-31.31,0-.41,0-.82,0-1.23.02-10.53.3-18.74,6.72-18.99,16.99-.59,23.3-.57,46.65.05,69.95.27,9.96,8.53,16.58,18.64,16.64,21.69.13,43.39.17,65.08.01,11.8-.08,19.58-7.89,19.67-19.7.15-21.28.13-42.57,0-63.85-.07-12.22-7.76-19.86-19.99-20.02-10.64-.14-21.28-.03-31.93-.03Z"/>
  <path class="cls-1" d="M45.25,91.28c0-10.45-.08-20.91.02-31.36.08-9.06,5.39-14.68,14.5-14.76,21.31-.18,42.63-.16,63.95,0,8.78.07,14.18,5.53,14.25,14.31.18,21.52.21,43.04.11,64.55-.04,8.28-5.57,14.02-13.92,14.11-21.72.22-43.45.23-65.17-.01-8.36-.09-13.6-5.87-13.7-14.27-.13-10.86-.03-21.72-.03-32.59ZM113.39,91.62c-.02-12.09-9.89-22.01-21.8-21.92-12.05.09-21.75,9.91-21.73,22,.02,12.08,9.78,21.89,21.82,21.91,11.89.03,21.74-9.95,21.72-22ZM122.03,53.66c-2.65,3.74-5.21,5.79-5.26,7.9-.04,1.79,2.82,3.65,4.4,5.47,1.94-1.69,5.13-3.15,5.48-5.12.34-1.89-2.26-4.31-4.62-8.24Z"/>
</svg>