<?xml version="1.0" encoding="UTF-8"?>
<svg id="Capa_1" data-name="Capa 1" xmlns="http://www.w3.org/2000/svg" viewBox="0 0 183.3 183.3">
  <defs>
    <style>
      .cls-1 {
        fill: #c8eab9;
      }
    </style>
  </defs>
  <path class="cls-1" d="M91.69,162.82c-11.57-.26-22.25-3.27-32.61-8.16-2.59-1.22-6.25-1.5-9.02-.75-7.89,2.13-15.54,5.1-23.35,7.51-1.54.48-3.73.45-4.99-.34-.71-.45-.5-3.07-.04-4.5,2.55-7.98,5.54-15.84,7.85-23.89.7-2.42.47-5.68-.62-7.94-12.23-25.36-11.44-50.17,4.45-73.42,15.61-22.85,38.18-32.6,65.7-30.6,32.9,2.38,61.72,32.03,63.6,65.19,2.04,35.98-21.55,68.02-55.2,74.78-5.19,1.04-10.51,1.43-15.77,2.12ZM48.41,79c.02.25-.07,1.94.34,3.5,6.88,26.07,23.55,42.95,48.93,51.25,10.23,3.34,18.83.12,25.74-8.14,4.49-5.36,4.76-11.45.24-15.95-6.02-6-15.64-7.41-20.07-2.94-7.81,7.88-10.92,8.18-19.72,1.42-2.58-1.98-4.93-4.32-7.09-6.76-8.6-9.68-8.42-13.34.46-22.58,1.4-1.45,3.24-4,2.81-5.42-1.35-4.45-3.17-8.95-5.77-12.78-3.1-4.56-8.26-6.01-13.01-3.12-7.37,4.48-13.12,10.53-12.85,21.52Z"/>
</svg>